<svg width="600" height="600" viewBox="0 0 600 600" fill="none" xmlns="http://www.w3.org/2000/svg">
<rect width="600" height="600" fill="#346F6B"/>
<path d="M203.299 291V264.818H212.146C214.2 264.818 215.879 265.189 217.183 265.93C218.495 266.663 219.467 267.656 220.098 268.909C220.728 270.162 221.044 271.56 221.044 273.102C221.044 274.645 220.728 276.047 220.098 277.308C219.475 278.57 218.512 279.575 217.208 280.325C215.904 281.067 214.234 281.438 212.197 281.438H205.856V278.625H212.095C213.501 278.625 214.63 278.382 215.483 277.896C216.335 277.411 216.953 276.754 217.336 275.928C217.728 275.092 217.924 274.151 217.924 273.102C217.924 272.054 217.728 271.116 217.336 270.29C216.953 269.463 216.331 268.815 215.47 268.347C214.609 267.869 213.467 267.631 212.044 267.631H206.47V291H203.299ZM228.759 264.818V291H225.742V264.818H228.759ZM240.063 291.46C238.819 291.46 237.69 291.226 236.675 290.757C235.661 290.28 234.856 289.594 234.259 288.699C233.663 287.795 233.364 286.705 233.364 285.426C233.364 284.301 233.586 283.389 234.029 282.69C234.472 281.983 235.065 281.429 235.806 281.028C236.548 280.628 237.366 280.33 238.261 280.134C239.164 279.929 240.072 279.767 240.984 279.648C242.177 279.494 243.144 279.379 243.886 279.303C244.636 279.217 245.181 279.077 245.522 278.881C245.871 278.685 246.046 278.344 246.046 277.858V277.756C246.046 276.494 245.701 275.514 245.011 274.815C244.329 274.116 243.293 273.767 241.904 273.767C240.464 273.767 239.335 274.082 238.516 274.713C237.698 275.344 237.123 276.017 236.79 276.733L233.927 275.71C234.438 274.517 235.12 273.588 235.972 272.923C236.833 272.25 237.771 271.781 238.785 271.517C239.808 271.244 240.813 271.108 241.802 271.108C242.433 271.108 243.157 271.185 243.975 271.338C244.802 271.483 245.599 271.786 246.366 272.246C247.141 272.706 247.785 273.401 248.296 274.33C248.808 275.259 249.063 276.503 249.063 278.062V291H246.046V288.341H245.893C245.688 288.767 245.347 289.223 244.87 289.709C244.393 290.195 243.758 290.608 242.965 290.949C242.173 291.29 241.205 291.46 240.063 291.46ZM240.523 288.75C241.717 288.75 242.722 288.516 243.54 288.047C244.367 287.578 244.989 286.973 245.407 286.232C245.833 285.49 246.046 284.71 246.046 283.892V281.131C245.918 281.284 245.637 281.425 245.202 281.553C244.776 281.672 244.282 281.778 243.719 281.872C243.165 281.957 242.624 282.034 242.096 282.102C241.576 282.162 241.154 282.213 240.83 282.256C240.046 282.358 239.313 282.524 238.631 282.754C237.958 282.976 237.413 283.312 236.995 283.764C236.586 284.207 236.381 284.812 236.381 285.58C236.381 286.628 236.769 287.42 237.545 287.957C238.329 288.486 239.322 288.75 240.523 288.75ZM262.547 291.409C260.706 291.409 259.121 290.974 257.792 290.105C256.462 289.236 255.439 288.038 254.723 286.513C254.007 284.987 253.65 283.244 253.65 281.284C253.65 279.29 254.016 277.53 254.749 276.004C255.49 274.47 256.522 273.273 257.843 272.412C259.172 271.543 260.723 271.108 262.496 271.108C263.877 271.108 265.121 271.364 266.229 271.875C267.337 272.386 268.245 273.102 268.952 274.023C269.659 274.943 270.098 276.017 270.269 277.244H267.252C267.022 276.349 266.51 275.557 265.718 274.866C264.934 274.168 263.877 273.818 262.547 273.818C261.371 273.818 260.34 274.125 259.453 274.739C258.576 275.344 257.89 276.2 257.395 277.308C256.909 278.408 256.667 279.699 256.667 281.182C256.667 282.699 256.905 284.02 257.382 285.145C257.868 286.27 258.55 287.143 259.428 287.766C260.314 288.388 261.354 288.699 262.547 288.699C263.331 288.699 264.043 288.562 264.682 288.29C265.321 288.017 265.863 287.625 266.306 287.114C266.749 286.602 267.064 285.989 267.252 285.273H270.269C270.098 286.432 269.676 287.476 269.003 288.405C268.338 289.325 267.456 290.058 266.357 290.604C265.266 291.141 263.996 291.409 262.547 291.409ZM282.912 291.409C281.02 291.409 279.388 290.991 278.016 290.156C276.652 289.312 275.6 288.136 274.858 286.628C274.125 285.111 273.759 283.347 273.759 281.335C273.759 279.324 274.125 277.551 274.858 276.017C275.6 274.474 276.631 273.273 277.952 272.412C279.282 271.543 280.833 271.108 282.605 271.108C283.628 271.108 284.638 271.278 285.635 271.619C286.632 271.96 287.54 272.514 288.358 273.281C289.176 274.04 289.828 275.045 290.314 276.298C290.8 277.551 291.043 279.094 291.043 280.926V282.205H275.907V279.597H287.975C287.975 278.489 287.753 277.5 287.31 276.631C286.875 275.761 286.253 275.075 285.444 274.572C284.642 274.07 283.696 273.818 282.605 273.818C281.404 273.818 280.364 274.116 279.486 274.713C278.617 275.301 277.948 276.068 277.479 277.014C277.01 277.96 276.776 278.974 276.776 280.057V281.795C276.776 283.278 277.032 284.536 277.543 285.567C278.063 286.589 278.783 287.369 279.703 287.906C280.624 288.435 281.694 288.699 282.912 288.699C283.705 288.699 284.421 288.588 285.06 288.366C285.708 288.136 286.266 287.795 286.735 287.344C287.203 286.884 287.566 286.312 287.821 285.631L290.736 286.449C290.429 287.438 289.914 288.307 289.189 289.057C288.465 289.798 287.57 290.378 286.505 290.795C285.439 291.205 284.242 291.409 282.912 291.409ZM298.65 279.188V291H295.632V264.818H298.65V274.432H298.905C299.365 273.418 300.056 272.612 300.976 272.016C301.905 271.411 303.141 271.108 304.684 271.108C306.022 271.108 307.194 271.376 308.199 271.913C309.205 272.442 309.985 273.256 310.539 274.355C311.101 275.446 311.382 276.835 311.382 278.523V291H308.365V278.727C308.365 277.168 307.961 275.962 307.151 275.109C306.35 274.249 305.238 273.818 303.814 273.818C302.826 273.818 301.939 274.027 301.155 274.445C300.38 274.862 299.766 275.472 299.314 276.273C298.871 277.074 298.65 278.045 298.65 279.188ZM324.879 291.409C323.107 291.409 321.551 290.987 320.213 290.143C318.884 289.3 317.844 288.119 317.094 286.602C316.352 285.085 315.982 283.312 315.982 281.284C315.982 279.239 316.352 277.453 317.094 275.928C317.844 274.402 318.884 273.217 320.213 272.374C321.551 271.53 323.107 271.108 324.879 271.108C326.652 271.108 328.203 271.53 329.533 272.374C330.871 273.217 331.911 274.402 332.652 275.928C333.402 277.453 333.777 279.239 333.777 281.284C333.777 283.312 333.402 285.085 332.652 286.602C331.911 288.119 330.871 289.3 329.533 290.143C328.203 290.987 326.652 291.409 324.879 291.409ZM324.879 288.699C326.226 288.699 327.334 288.354 328.203 287.663C329.072 286.973 329.716 286.065 330.134 284.94C330.551 283.815 330.76 282.597 330.76 281.284C330.76 279.972 330.551 278.749 330.134 277.615C329.716 276.482 329.072 275.565 328.203 274.866C327.334 274.168 326.226 273.818 324.879 273.818C323.533 273.818 322.425 274.168 321.555 274.866C320.686 275.565 320.043 276.482 319.625 277.615C319.207 278.749 318.999 279.972 318.999 281.284C318.999 282.597 319.207 283.815 319.625 284.94C320.043 286.065 320.686 286.973 321.555 287.663C322.425 288.354 323.533 288.699 324.879 288.699ZM341.4 264.818V291H338.382V264.818H341.4ZM354.34 291.409C352.704 291.409 351.259 290.996 350.006 290.169C348.754 289.334 347.773 288.158 347.066 286.641C346.359 285.115 346.005 283.312 346.005 281.233C346.005 279.17 346.359 277.381 347.066 275.864C347.773 274.347 348.758 273.175 350.019 272.348C351.281 271.521 352.738 271.108 354.391 271.108C355.67 271.108 356.68 271.321 357.421 271.747C358.171 272.165 358.742 272.642 359.134 273.179C359.535 273.707 359.846 274.142 360.067 274.483H360.323V264.818H363.34V291H360.425V287.983H360.067C359.846 288.341 359.531 288.793 359.121 289.338C358.712 289.875 358.129 290.357 357.37 290.783C356.612 291.2 355.602 291.409 354.34 291.409ZM354.749 288.699C355.96 288.699 356.982 288.384 357.817 287.753C358.653 287.114 359.288 286.232 359.722 285.107C360.157 283.973 360.374 282.665 360.374 281.182C360.374 279.716 360.161 278.433 359.735 277.334C359.309 276.226 358.678 275.365 357.843 274.751C357.008 274.129 355.977 273.818 354.749 273.818C353.471 273.818 352.406 274.146 351.553 274.803C350.71 275.45 350.075 276.332 349.648 277.449C349.231 278.557 349.022 279.801 349.022 281.182C349.022 282.58 349.235 283.849 349.661 284.991C350.096 286.125 350.735 287.028 351.579 287.702C352.431 288.366 353.488 288.699 354.749 288.699ZM377.518 291.409C375.626 291.409 373.994 290.991 372.621 290.156C371.258 289.312 370.205 288.136 369.464 286.628C368.731 285.111 368.364 283.347 368.364 281.335C368.364 279.324 368.731 277.551 369.464 276.017C370.205 274.474 371.237 273.273 372.558 272.412C373.887 271.543 375.438 271.108 377.211 271.108C378.234 271.108 379.244 271.278 380.241 271.619C381.238 271.96 382.146 272.514 382.964 273.281C383.782 274.04 384.434 275.045 384.92 276.298C385.406 277.551 385.648 279.094 385.648 280.926V282.205H370.512V279.597H382.58C382.58 278.489 382.359 277.5 381.915 276.631C381.481 275.761 380.859 275.075 380.049 274.572C379.248 274.07 378.302 273.818 377.211 273.818C376.009 273.818 374.969 274.116 374.092 274.713C373.222 275.301 372.553 276.068 372.085 277.014C371.616 277.96 371.381 278.974 371.381 280.057V281.795C371.381 283.278 371.637 284.536 372.148 285.567C372.668 286.589 373.388 287.369 374.309 287.906C375.229 288.435 376.299 288.699 377.518 288.699C378.31 288.699 379.026 288.588 379.665 288.366C380.313 288.136 380.871 287.795 381.34 287.344C381.809 286.884 382.171 286.312 382.427 285.631L385.342 286.449C385.035 287.438 384.519 288.307 383.795 289.057C383.07 289.798 382.175 290.378 381.11 290.795C380.045 291.205 378.847 291.409 377.518 291.409ZM390.238 291V271.364H393.153V274.33H393.357C393.715 273.358 394.363 272.57 395.3 271.964C396.238 271.359 397.295 271.057 398.471 271.057C398.692 271.057 398.969 271.061 399.302 271.07C399.634 271.078 399.886 271.091 400.056 271.108V274.176C399.954 274.151 399.719 274.112 399.353 274.061C398.995 274.001 398.616 273.972 398.215 273.972C397.261 273.972 396.408 274.172 395.658 274.572C394.917 274.964 394.329 275.51 393.894 276.209C393.468 276.899 393.255 277.687 393.255 278.574V291H390.238ZM232.573 335.358C231.499 335.341 230.426 335.136 229.352 334.744C228.278 334.352 227.298 333.692 226.411 332.763C225.525 331.825 224.813 330.56 224.276 328.966C223.74 327.364 223.471 325.352 223.471 322.932C223.471 320.614 223.688 318.56 224.123 316.77C224.558 314.972 225.188 313.459 226.015 312.232C226.842 310.996 227.839 310.058 229.007 309.419C230.183 308.78 231.508 308.46 232.982 308.46C234.448 308.46 235.752 308.754 236.894 309.342C238.045 309.922 238.982 310.732 239.707 311.771C240.431 312.811 240.9 314.009 241.113 315.364H237.994C237.704 314.187 237.142 313.212 236.306 312.436C235.471 311.661 234.363 311.273 232.982 311.273C230.954 311.273 229.356 312.155 228.188 313.919C227.029 315.683 226.445 318.159 226.437 321.347H226.642C227.119 320.622 227.686 320.004 228.342 319.493C229.007 318.973 229.74 318.572 230.541 318.291C231.342 318.01 232.19 317.869 233.085 317.869C234.585 317.869 235.957 318.244 237.201 318.994C238.445 319.736 239.443 320.763 240.193 322.075C240.943 323.379 241.318 324.875 241.318 326.562C241.318 328.182 240.955 329.665 240.231 331.011C239.507 332.349 238.488 333.415 237.176 334.207C235.872 334.991 234.338 335.375 232.573 335.358ZM232.573 332.545C233.647 332.545 234.61 332.277 235.463 331.74C236.323 331.203 237.001 330.483 237.495 329.58C237.998 328.676 238.249 327.67 238.249 326.562C238.249 325.48 238.007 324.496 237.521 323.609C237.044 322.714 236.383 322.003 235.539 321.474C234.704 320.946 233.749 320.682 232.676 320.682C231.866 320.682 231.112 320.844 230.413 321.168C229.714 321.483 229.1 321.918 228.572 322.472C228.052 323.026 227.643 323.661 227.345 324.376C227.046 325.084 226.897 325.83 226.897 326.614C226.897 327.653 227.14 328.625 227.626 329.528C228.12 330.432 228.794 331.161 229.646 331.714C230.507 332.268 231.482 332.545 232.573 332.545ZM254.885 335.358C252.959 335.358 251.318 334.834 249.963 333.786C248.608 332.729 247.572 331.199 246.856 329.196C246.14 327.185 245.782 324.756 245.782 321.909C245.782 319.08 246.14 316.663 246.856 314.661C247.581 312.649 248.621 311.115 249.976 310.058C251.339 308.993 252.976 308.46 254.885 308.46C256.794 308.46 258.426 308.993 259.781 310.058C261.145 311.115 262.184 312.649 262.9 314.661C263.625 316.663 263.987 319.08 263.987 321.909C263.987 324.756 263.629 327.185 262.913 329.196C262.197 331.199 261.162 332.729 259.807 333.786C258.452 334.834 256.811 335.358 254.885 335.358ZM254.885 332.545C256.794 332.545 258.277 331.625 259.334 329.784C260.39 327.943 260.919 325.318 260.919 321.909C260.919 319.642 260.676 317.712 260.19 316.118C259.713 314.524 259.023 313.31 258.119 312.474C257.224 311.639 256.146 311.222 254.885 311.222C252.993 311.222 251.514 312.155 250.449 314.021C249.383 315.879 248.851 318.509 248.851 321.909C248.851 324.176 249.089 326.102 249.567 327.688C250.044 329.273 250.73 330.479 251.625 331.305C252.528 332.132 253.615 332.545 254.885 332.545ZM277.385 335.358C275.459 335.358 273.818 334.834 272.463 333.786C271.108 332.729 270.072 331.199 269.356 329.196C268.64 327.185 268.282 324.756 268.282 321.909C268.282 319.08 268.64 316.663 269.356 314.661C270.081 312.649 271.121 311.115 272.476 310.058C273.839 308.993 275.476 308.46 277.385 308.46C279.294 308.46 280.926 308.993 282.281 310.058C283.645 311.115 284.684 312.649 285.4 314.661C286.125 316.663 286.487 319.08 286.487 321.909C286.487 324.756 286.129 327.185 285.413 329.196C284.697 331.199 283.662 332.729 282.307 333.786C280.952 334.834 279.311 335.358 277.385 335.358ZM277.385 332.545C279.294 332.545 280.777 331.625 281.834 329.784C282.89 327.943 283.419 325.318 283.419 321.909C283.419 319.642 283.176 317.712 282.69 316.118C282.213 314.524 281.523 313.31 280.619 312.474C279.724 311.639 278.646 311.222 277.385 311.222C275.493 311.222 274.014 312.155 272.949 314.021C271.883 315.879 271.351 318.509 271.351 321.909C271.351 324.176 271.589 326.102 272.067 327.688C272.544 329.273 273.23 330.479 274.125 331.305C275.028 332.132 276.115 332.545 277.385 332.545ZM306.737 330.295L292.317 315.875L294.26 313.932L308.68 328.352L306.737 330.295ZM294.26 330.295L292.317 328.352L306.737 313.932L308.68 315.875L294.26 330.295ZM323.769 335.358C322.695 335.341 321.621 335.136 320.547 334.744C319.473 334.352 318.493 333.692 317.607 332.763C316.72 331.825 316.009 330.56 315.472 328.966C314.935 327.364 314.666 325.352 314.666 322.932C314.666 320.614 314.884 318.56 315.318 316.77C315.753 314.972 316.384 313.459 317.21 312.232C318.037 310.996 319.034 310.058 320.202 309.419C321.378 308.78 322.703 308.46 324.178 308.46C325.644 308.46 326.948 308.754 328.09 309.342C329.24 309.922 330.178 310.732 330.902 311.771C331.627 312.811 332.095 314.009 332.308 315.364H329.189C328.899 314.187 328.337 313.212 327.502 312.436C326.666 311.661 325.558 311.273 324.178 311.273C322.149 311.273 320.551 312.155 319.384 313.919C318.225 315.683 317.641 318.159 317.632 321.347H317.837C318.314 320.622 318.881 320.004 319.537 319.493C320.202 318.973 320.935 318.572 321.736 318.291C322.537 318.01 323.385 317.869 324.28 317.869C325.78 317.869 327.152 318.244 328.396 318.994C329.641 319.736 330.638 320.763 331.388 322.075C332.138 323.379 332.513 324.875 332.513 326.562C332.513 328.182 332.151 329.665 331.426 331.011C330.702 332.349 329.683 333.415 328.371 334.207C327.067 334.991 325.533 335.375 323.769 335.358ZM323.769 332.545C324.843 332.545 325.806 332.277 326.658 331.74C327.519 331.203 328.196 330.483 328.691 329.58C329.193 328.676 329.445 327.67 329.445 326.562C329.445 325.48 329.202 324.496 328.716 323.609C328.239 322.714 327.578 322.003 326.735 321.474C325.899 320.946 324.945 320.682 323.871 320.682C323.061 320.682 322.307 320.844 321.608 321.168C320.909 321.483 320.296 321.918 319.767 322.472C319.247 323.026 318.838 323.661 318.54 324.376C318.242 325.084 318.093 325.83 318.093 326.614C318.093 327.653 318.335 328.625 318.821 329.528C319.316 330.432 319.989 331.161 320.841 331.714C321.702 332.268 322.678 332.545 323.769 332.545ZM346.08 335.358C344.154 335.358 342.513 334.834 341.158 333.786C339.803 332.729 338.768 331.199 338.052 329.196C337.336 327.185 336.978 324.756 336.978 321.909C336.978 319.08 337.336 316.663 338.052 314.661C338.776 312.649 339.816 311.115 341.171 310.058C342.535 308.993 344.171 308.46 346.08 308.46C347.989 308.46 349.621 308.993 350.976 310.058C352.34 311.115 353.38 312.649 354.096 314.661C354.82 316.663 355.182 319.08 355.182 321.909C355.182 324.756 354.824 327.185 354.108 329.196C353.393 331.199 352.357 332.729 351.002 333.786C349.647 334.834 348.006 335.358 346.08 335.358ZM346.08 332.545C347.989 332.545 349.472 331.625 350.529 329.784C351.586 327.943 352.114 325.318 352.114 321.909C352.114 319.642 351.871 317.712 351.385 316.118C350.908 314.524 350.218 313.31 349.314 312.474C348.42 311.639 347.341 311.222 346.08 311.222C344.188 311.222 342.709 312.155 341.644 314.021C340.579 315.879 340.046 318.509 340.046 321.909C340.046 324.176 340.285 326.102 340.762 327.688C341.239 329.273 341.925 330.479 342.82 331.305C343.724 332.132 344.81 332.545 346.08 332.545ZM368.58 335.358C366.654 335.358 365.013 334.834 363.658 333.786C362.303 332.729 361.268 331.199 360.552 329.196C359.836 327.185 359.478 324.756 359.478 321.909C359.478 319.08 359.836 316.663 360.552 314.661C361.276 312.649 362.316 311.115 363.671 310.058C365.035 308.993 366.671 308.46 368.58 308.46C370.489 308.46 372.121 308.993 373.476 310.058C374.84 311.115 375.88 312.649 376.596 314.661C377.32 316.663 377.682 319.08 377.682 321.909C377.682 324.756 377.324 327.185 376.608 329.196C375.893 331.199 374.857 332.729 373.502 333.786C372.147 334.834 370.506 335.358 368.58 335.358ZM368.58 332.545C370.489 332.545 371.972 331.625 373.029 329.784C374.086 327.943 374.614 325.318 374.614 321.909C374.614 319.642 374.371 317.712 373.885 316.118C373.408 314.524 372.718 313.31 371.814 312.474C370.92 311.639 369.841 311.222 368.58 311.222C366.688 311.222 365.209 312.155 364.144 314.021C363.079 315.879 362.546 318.509 362.546 321.909C362.546 324.176 362.785 326.102 363.262 327.688C363.739 329.273 364.425 330.479 365.32 331.305C366.224 332.132 367.31 332.545 368.58 332.545Z" fill="white"/>
</svg>
